<svg
        width="120"
        height="120"
        viewBox="0 0 120 120"
        fill="transparent"
        stroke="currentColor"
        xmlns="http://www.w3.org/2000/svg"
>
    <path d="M20 30C20 24.4772 24.4772 20 30 20H80C85.5228 20 90 24.4772 90 30V40C90 45.5228 85.5228 50 80 50H30C24.4772 50 20 45.5228 20 40V30Z"
          stroke-width="4" stroke-linejoin="round"/>
    <path d="M10 40C10 34.4772 14.4772 30 20 30H70C75.5228 30 80 34.4772 80 40V100C80 105.523 75.5228 110 70 110H20C14.4772 110 10 105.523 10 100V40Z"
          stroke-width="4" stroke-linejoin="round"/>
    <path d="M85 75L90.618 86.5491L103 88.382L94 97.4509L96.1803 110L85 104.099L73.8197 110L76 97.4509L67 88.382L79.382 86.5491L85 75Z"
          stroke-width="3" stroke-linejoin="round"/>
</svg>